<svg width="25" height="25" viewBox="0 0 25 25" fill="none" xmlns="http://www.w3.org/2000/svg">
<path fill-rule="evenodd" clip-rule="evenodd" d="M0 12.4444C0 5.57157 5.57157 0 12.4444 0C15.7449 0 18.9102 1.31111 21.244 3.64489C23.5778 5.97868 24.8889 9.14397 24.8889 12.4444C24.8889 19.3173 19.3173 24.8889 12.4444 24.8889C5.57157 24.8889 0 19.3173 0 12.4444ZM12.0833 17.0614L18.3055 10.8391C18.7934 10.3512 18.7934 9.56001 18.3055 9.07204C17.8175 8.58406 17.0263 8.58406 16.5384 9.07204L11.1997 14.4231L8.34992 11.5609C8.03425 11.2453 7.57416 11.122 7.14296 11.2375C6.71175 11.3531 6.37494 11.6899 6.2594 12.1211C6.14386 12.5523 6.26714 13.0124 6.58281 13.328L10.3161 17.0614C10.5498 17.297 10.8679 17.4295 11.1997 17.4295C11.5315 17.4295 11.8496 17.297 12.0833 17.0614Z" fill="#23262F"/>
</svg>
