<svg width="22" height="15" viewBox="0 0 22 15" fill="none" xmlns="http://www.w3.org/2000/svg">
<path d="M1 6.36395C0.447715 6.36395 0 6.81167 0 7.36395C0 7.91624 0.447715 8.36395 1 8.36395V6.36395ZM21.7071 8.07106C22.0976 7.68054 22.0976 7.04737 21.7071 6.65685L15.3431 0.292885C14.9526 -0.0976396 14.3195 -0.0976396 13.9289 0.292885C13.5384 0.683409 13.5384 1.31657 13.9289 1.7071L19.5858 7.36395L13.9289 13.0208C13.5384 13.4113 13.5384 14.0445 13.9289 14.435C14.3195 14.8255 14.9526 14.8255 15.3431 14.435L21.7071 8.07106ZM1 8.36395H21V6.36395H1V8.36395Z" fill="#23262F"/>
</svg>
